<svg xmlns="http://www.w3.org/2000/svg" xmlns:xlink="http://www.w3.org/1999/xlink" width="150" zoomAndPan="magnify" viewBox="0 0 112.5 112.499997" height="150" preserveAspectRatio="xMidYMid meet" version="1.0"><defs><g/><clipPath id="1d2b06a034"><path d="M 8.476562 8.476562 L 103.304688 8.476562 L 103.304688 103.304688 L 8.476562 103.304688 Z M 8.476562 8.476562 " clip-rule="nonzero"/></clipPath></defs><g clip-path="url(#1d2b06a034)"><path fill="#ffffff" d="M 56 8.476562 C 29.753906 8.476562 8.476562 29.753906 8.476562 56 C 8.476562 82.25 29.753906 103.527344 56 103.527344 C 82.25 103.527344 103.527344 82.25 103.527344 56 C 103.527344 29.753906 82.25 8.476562 56 8.476562 Z M 79.363281 30.019531 C 81.097656 29.820312 82.585938 31.628906 81.769531 33.390625 L 67.871094 63.257812 C 66.925781 65.292969 65.292969 66.925781 63.257812 67.871094 L 33.390625 81.769531 C 31.378906 82.703125 29.296875 80.621094 30.234375 78.613281 L 44.128906 48.742188 C 45.074219 46.710938 46.707031 45.074219 48.742188 44.128906 L 78.613281 30.234375 C 78.863281 30.117188 79.117188 30.046875 79.363281 30.019531 Z M 56 50.773438 C 53.101562 50.773438 50.773438 53.101562 50.773438 56 C 50.773438 58.898438 53.101562 61.226562 56 61.226562 C 58.898438 61.226562 61.226562 58.898438 61.226562 56 C 61.226562 53.101562 58.898438 50.773438 56 50.773438 Z M 56 50.773438 " fill-opacity="1" fill-rule="nonzero"/></g><g fill="#ffffff" fill-opacity="1"><g transform="translate(72.573939, 81.166019)"><g><path d="M 1.609375 -1.34375 C 1.472656 -1.144531 1.316406 -0.976562 1.140625 -0.84375 C 0.722656 -0.5 0.316406 -0.566406 -0.078125 -1.046875 L -1.796875 -3.171875 L -2.1875 -2.859375 L -2.5 -3.25 L -2.109375 -3.578125 L -2.515625 -4.40625 L -2.15625 -4.6875 L -1.59375 -3.984375 L -1 -4.46875 L -0.6875 -4.078125 L -1.28125 -3.59375 L 0.34375 -1.59375 C 0.46875 -1.4375 0.582031 -1.347656 0.6875 -1.328125 C 0.789062 -1.304688 0.90625 -1.347656 1.03125 -1.453125 C 1.09375 -1.503906 1.179688 -1.59375 1.296875 -1.71875 Z M 1.609375 -1.34375 "/></g></g></g></svg>