<svg xmlns="http://www.w3.org/2000/svg" xmlns:xlink="http://www.w3.org/1999/xlink" width="150" zoomAndPan="magnify" viewBox="0 0 112.5 112.499997" height="150" preserveAspectRatio="xMidYMid meet" version="1.0"><defs><g/><clipPath id="f75803c04d"><path d="M 71 16.734375 L 105 16.734375 L 105 76 L 71 76 Z M 71 16.734375 " clip-rule="nonzero"/></clipPath><clipPath id="4142fa6249"><path d="M 7.21875 16.734375 L 41 16.734375 L 41 76 L 7.21875 76 Z M 7.21875 16.734375 " clip-rule="nonzero"/></clipPath><clipPath id="bb147bc8c3"><path d="M 21 17 L 91 17 L 91 95.132812 L 21 95.132812 Z M 21 17 " clip-rule="nonzero"/></clipPath></defs><g clip-path="url(#f75803c04d)"><path fill="#ffffff" d="M 81.414062 40.347656 C 81.414062 48.339844 78.265625 55.753906 73.0625 60.910156 L 74.285156 61.4375 C 80.898438 64.289062 86.242188 69.0625 89.777344 75.003906 L 104.78125 75.003906 L 103.988281 69.59375 C 102.914062 62.269531 98.121094 56.03125 91.324219 53.101562 L 84.046875 49.964844 C 90.066406 47.667969 94.402344 41.320312 94.402344 33.832031 C 94.402344 24.410156 87.550781 16.769531 79.101562 16.769531 C 76.519531 16.769531 74.109375 17.519531 71.984375 18.792969 C 77.730469 23.886719 81.414062 31.652344 81.414062 40.347656 " fill-opacity="1" fill-rule="nonzero"/></g><g clip-path="url(#4142fa6249)"><path fill="#ffffff" d="M 37.714844 61.4375 L 38.9375 60.910156 C 33.730469 55.753906 30.582031 48.339844 30.582031 40.347656 C 30.582031 31.652344 34.269531 23.886719 40.011719 18.792969 C 37.890625 17.519531 35.480469 16.769531 32.898438 16.769531 C 24.449219 16.769531 17.597656 24.410156 17.597656 33.832031 C 17.597656 41.320312 21.933594 47.667969 27.953125 49.964844 L 20.671875 53.101562 C 13.878906 56.03125 9.085938 62.269531 8.011719 69.589844 L 7.214844 75.003906 L 22.222656 75.003906 C 25.757812 69.0625 31.101562 64.289062 37.714844 61.4375 " fill-opacity="1" fill-rule="nonzero"/></g><g clip-path="url(#bb147bc8c3)"><path fill="#ffffff" d="M 22.816406 88.03125 L 21.757812 95.246094 L 90.242188 95.246094 L 89.183594 88.03125 C 87.75 78.269531 81.359375 69.949219 72.300781 66.042969 L 62.59375 61.859375 C 70.621094 58.800781 76.398438 50.335938 76.398438 40.347656 C 76.398438 27.785156 67.265625 17.601562 56 17.601562 C 44.730469 17.601562 35.597656 27.785156 35.597656 40.347656 C 35.597656 50.335938 41.378906 58.800781 49.40625 61.859375 L 39.699219 66.042969 C 30.640625 69.949219 24.25 78.269531 22.816406 88.03125 " fill-opacity="1" fill-rule="nonzero"/></g><g fill="#ffffff" fill-opacity="1"><g transform="translate(54.338571, 50.774334)"><g><path d="M 3.234375 -0.046875 C 2.890625 0.046875 2.535156 0.09375 2.171875 0.09375 C 1.328125 0.09375 0.90625 -0.382812 0.90625 -1.34375 L 0.90625 -5.546875 L 0.1875 -5.546875 L 0.1875 -6.3125 L 0.953125 -6.3125 L 1.265625 -7.734375 L 1.96875 -7.734375 L 1.96875 -6.3125 L 3.125 -6.3125 L 3.125 -5.546875 L 1.96875 -5.546875 L 1.96875 -1.5625 C 1.96875 -1.257812 2.015625 -1.046875 2.109375 -0.921875 C 2.210938 -0.796875 2.382812 -0.734375 2.625 -0.734375 C 2.769531 -0.734375 2.972656 -0.765625 3.234375 -0.828125 Z M 3.234375 -0.046875 "/></g></g></g></svg>