<svg xmlns="http://www.w3.org/2000/svg" xmlns:xlink="http://www.w3.org/1999/xlink" width="150" zoomAndPan="magnify" viewBox="0 0 112.5 112.499997" height="150" preserveAspectRatio="xMidYMid meet" version="1.0"><defs><g/><clipPath id="c4d7d45e4a"><path d="M 9 11.671875 L 103 11.671875 L 103 55 L 9 55 Z M 9 11.671875 " clip-rule="nonzero"/></clipPath><clipPath id="f56b178ebb"><path d="M 19 33 L 94 33 L 94 100.527344 L 19 100.527344 Z M 19 33 " clip-rule="nonzero"/></clipPath></defs><g clip-path="url(#c4d7d45e4a)"><path fill="#ffffff" d="M 100.683594 42.808594 L 85.667969 31.765625 L 85.667969 18.589844 C 85.667969 16.523438 83.992188 14.851562 81.929688 14.851562 L 75.851562 14.851562 C 73.785156 14.851562 72.113281 16.527344 72.113281 18.589844 L 72.113281 21.789062 L 60.664062 13.367188 C 58.179688 11.535156 54.113281 11.535156 51.628906 13.367188 L 11.605469 42.808594 C 9.121094 44.636719 8.585938 48.171875 10.414062 50.65625 L 11.523438 52.15625 C 13.347656 54.644531 16.878906 55.183594 19.359375 53.355469 L 51.628906 29.609375 C 54.113281 27.777344 58.179688 27.777344 60.664062 29.609375 L 92.929688 53.355469 C 95.414062 55.183594 98.941406 54.640625 100.765625 52.15625 L 101.875 50.65625 C 103.703125 48.171875 103.167969 44.636719 100.683594 42.808594 Z M 100.683594 42.808594 " fill-opacity="1" fill-rule="nonzero"/></g><g clip-path="url(#f56b178ebb)"><path fill="#ffffff" d="M 88.710938 55.421875 L 60.65625 34.683594 C 58.171875 32.847656 54.117188 32.847656 51.636719 34.683594 L 23.578125 55.421875 C 21.097656 57.253906 19.066406 59.9375 19.066406 61.390625 L 19.066406 91.457031 C 19.066406 96.335938 23.253906 100.296875 28.417969 100.296875 L 45.550781 100.296875 L 45.550781 73.703125 C 45.550781 71.648438 47.234375 69.96875 49.289062 69.96875 L 63 69.96875 C 65.050781 69.96875 66.734375 71.648438 66.734375 73.703125 L 66.734375 100.296875 L 83.871094 100.296875 C 89.035156 100.296875 93.214844 96.335938 93.214844 91.457031 L 93.214844 61.390625 C 93.21875 59.9375 91.191406 57.253906 88.710938 55.421875 Z M 88.710938 55.421875 " fill-opacity="1" fill-rule="nonzero"/></g><g fill="#ffffff" fill-opacity="1"><g transform="translate(54.338571, 50.774334)"><g><path d="M 3.234375 -0.046875 C 2.890625 0.046875 2.535156 0.09375 2.171875 0.09375 C 1.328125 0.09375 0.90625 -0.382812 0.90625 -1.34375 L 0.90625 -5.546875 L 0.1875 -5.546875 L 0.1875 -6.3125 L 0.953125 -6.3125 L 1.265625 -7.734375 L 1.96875 -7.734375 L 1.96875 -6.3125 L 3.125 -6.3125 L 3.125 -5.546875 L 1.96875 -5.546875 L 1.96875 -1.5625 C 1.96875 -1.257812 2.015625 -1.046875 2.109375 -0.921875 C 2.210938 -0.796875 2.382812 -0.734375 2.625 -0.734375 C 2.769531 -0.734375 2.972656 -0.765625 3.234375 -0.828125 Z M 3.234375 -0.046875 "/></g></g></g></svg>