<svg xmlns="http://www.w3.org/2000/svg" xmlns:xlink="http://www.w3.org/1999/xlink" width="150" zoomAndPan="magnify" viewBox="0 0 112.5 112.499997" height="150" preserveAspectRatio="xMidYMid meet" version="1.0"><defs><g/><clipPath id="d280f16f3b"><path d="M 7.21875 7.21875 L 105 7.21875 L 105 105 L 7.21875 105 Z M 7.21875 7.21875 " clip-rule="nonzero"/></clipPath></defs><g clip-path="url(#d280f16f3b)"><path fill="#ffffff" d="M 104.777344 23.570312 C 104.777344 14.542969 97.453125 7.21875 88.429688 7.21875 L 23.570312 7.21875 C 14.542969 7.21875 7.21875 14.542969 7.21875 23.570312 C 7.21875 23.570312 7.21875 88.429688 7.21875 88.429688 C 7.21875 97.453125 14.542969 104.777344 23.570312 104.777344 L 88.429688 104.777344 C 97.453125 104.777344 104.777344 97.453125 104.777344 88.429688 Z M 97.273438 23.570312 L 97.273438 88.429688 C 97.273438 93.3125 93.3125 97.273438 88.429688 97.273438 C 88.429688 97.273438 23.570312 97.273438 23.570312 97.273438 C 18.6875 97.273438 14.726562 93.3125 14.726562 88.429688 L 14.726562 23.570312 C 14.726562 18.6875 18.6875 14.726562 23.570312 14.726562 C 23.570312 14.726562 88.429688 14.726562 88.429688 14.726562 C 93.3125 14.726562 97.273438 18.6875 97.273438 23.570312 Z M 33.484375 67.257812 C 27.273438 67.257812 22.230469 72.300781 22.230469 78.511719 C 22.230469 84.726562 27.273438 89.769531 33.484375 89.769531 C 39.699219 89.769531 44.742188 84.726562 44.742188 78.511719 C 44.742188 72.300781 39.699219 67.257812 33.484375 67.257812 Z M 52.246094 86.015625 L 86.015625 86.015625 C 88.089844 86.015625 89.769531 84.335938 89.769531 82.265625 C 89.769531 80.195312 88.089844 78.511719 86.015625 78.511719 L 52.246094 78.511719 C 50.175781 78.511719 48.496094 80.195312 48.496094 82.265625 C 48.496094 84.335938 50.175781 86.015625 52.246094 86.015625 Z M 33.484375 74.761719 C 35.558594 74.761719 37.238281 76.441406 37.238281 78.511719 C 37.238281 80.585938 35.558594 82.265625 33.484375 82.265625 C 31.414062 82.265625 29.734375 80.585938 29.734375 78.511719 C 29.734375 76.441406 31.414062 74.761719 33.484375 74.761719 Z M 33.484375 42.867188 C 27.273438 42.867188 22.230469 47.910156 22.230469 54.125 C 22.230469 60.335938 27.273438 65.378906 33.484375 65.378906 C 39.699219 65.378906 44.742188 60.335938 44.742188 54.125 C 44.742188 47.910156 39.699219 42.867188 33.484375 42.867188 Z M 52.246094 59.75 L 86.015625 59.75 C 88.089844 59.75 89.769531 58.070312 89.769531 56 C 89.769531 53.929688 88.089844 52.246094 86.015625 52.246094 L 52.246094 52.246094 C 50.175781 52.246094 48.496094 53.929688 48.496094 56 C 48.496094 58.070312 50.175781 59.75 52.246094 59.75 Z M 33.484375 50.371094 C 35.558594 50.371094 37.238281 52.050781 37.238281 54.125 C 37.238281 56.195312 35.558594 57.875 33.484375 57.875 C 31.414062 57.875 29.734375 56.195312 29.734375 54.125 C 29.734375 52.050781 31.414062 50.371094 33.484375 50.371094 Z M 33.484375 18.476562 C 27.273438 18.476562 22.230469 23.519531 22.230469 29.734375 C 22.230469 35.949219 27.273438 40.992188 33.484375 40.992188 C 39.699219 40.992188 44.742188 35.949219 44.742188 29.734375 C 44.742188 23.519531 39.699219 18.476562 33.484375 18.476562 Z M 52.246094 33.484375 L 86.015625 33.484375 C 88.089844 33.484375 89.769531 31.804688 89.769531 29.734375 C 89.769531 27.664062 88.089844 25.980469 86.015625 25.980469 L 52.246094 25.980469 C 50.175781 25.980469 48.496094 27.664062 48.496094 29.734375 C 48.496094 31.804688 50.175781 33.484375 52.246094 33.484375 Z M 33.484375 25.980469 C 35.558594 25.980469 37.238281 27.664062 37.238281 29.734375 C 37.238281 31.804688 35.558594 33.484375 33.484375 33.484375 C 31.414062 33.484375 29.734375 31.804688 29.734375 29.734375 C 29.734375 27.664062 31.414062 25.980469 33.484375 25.980469 Z M 33.484375 25.980469 " fill-opacity="1" fill-rule="evenodd"/></g><g fill="#ffffff" fill-opacity="1"><g transform="translate(57.969929, 54.337404)"><g><path d="M 0.046875 3.234375 C -0.046875 2.890625 -0.09375 2.535156 -0.09375 2.171875 C -0.09375 1.328125 0.382812 0.90625 1.34375 0.90625 L 5.546875 0.90625 L 5.546875 0.1875 L 6.3125 0.1875 L 6.3125 0.953125 L 7.734375 1.265625 L 7.734375 1.96875 L 6.3125 1.96875 L 6.3125 3.125 L 5.546875 3.125 L 5.546875 1.96875 L 1.5625 1.96875 C 1.257812 1.96875 1.046875 2.015625 0.921875 2.109375 C 0.796875 2.210938 0.734375 2.382812 0.734375 2.625 C 0.734375 2.769531 0.765625 2.972656 0.828125 3.234375 Z M 0.046875 3.234375 "/></g></g></g></svg>