<svg xmlns="http://www.w3.org/2000/svg" xmlns:xlink="http://www.w3.org/1999/xlink" width="150" zoomAndPan="magnify" viewBox="0 0 112.5 112.499997" height="150" preserveAspectRatio="xMidYMid meet" version="1.0"><defs><g/><clipPath id="eccbc286f9"><path d="M 12 9.902344 L 100 9.902344 L 100 40 L 12 40 Z M 12 9.902344 " clip-rule="nonzero"/></clipPath><clipPath id="7d775ce0fb"><path d="M 7.21875 95 L 105 95 L 105 101.746094 L 7.21875 101.746094 Z M 7.21875 95 " clip-rule="nonzero"/></clipPath></defs><g clip-path="url(#eccbc286f9)"><path fill="#ffffff" d="M 99.015625 28.824219 L 99.011719 28.824219 L 77.503906 19.363281 L 56 9.902344 L 34.492188 19.363281 L 12.988281 28.824219 L 12.984375 28.824219 L 12.984375 39.828125 L 99.015625 39.828125 Z M 99.015625 28.824219 " fill-opacity="1" fill-rule="nonzero"/></g><path fill="#ffffff" d="M 21.453125 80.09375 C 20.179688 80.09375 19.144531 81.125 19.144531 82.402344 C 19.144531 83.679688 20.179688 84.710938 21.453125 84.710938 L 35.097656 84.710938 C 36.371094 84.710938 37.40625 83.679688 37.40625 82.402344 C 37.40625 81.125 36.371094 80.09375 35.097656 80.09375 L 34.328125 80.09375 L 34.328125 47.089844 L 35.097656 47.089844 C 36.371094 47.089844 37.40625 46.054688 37.40625 44.777344 C 37.40625 43.5 36.371094 42.46875 35.097656 42.46875 L 21.453125 42.46875 C 20.179688 42.46875 19.144531 43.5 19.144531 44.777344 C 19.144531 46.054688 20.179688 47.089844 21.453125 47.089844 L 22.226562 47.089844 L 22.226562 80.09375 Z M 21.453125 80.09375 " fill-opacity="1" fill-rule="nonzero"/><path fill="#ffffff" d="M 49.179688 80.09375 C 47.902344 80.09375 46.867188 81.125 46.867188 82.402344 C 46.867188 83.679688 47.902344 84.710938 49.179688 84.710938 L 62.820312 84.710938 C 64.097656 84.710938 65.128906 83.679688 65.128906 82.402344 C 65.128906 81.125 64.097656 80.09375 62.820312 80.09375 L 62.050781 80.09375 L 62.050781 47.089844 L 62.820312 47.089844 C 64.097656 47.089844 65.128906 46.054688 65.128906 44.777344 C 65.128906 43.5 64.097656 42.46875 62.820312 42.46875 L 49.179688 42.46875 C 47.902344 42.46875 46.867188 43.5 46.867188 44.777344 C 46.867188 46.054688 47.902344 47.089844 49.179688 47.089844 L 49.949219 47.089844 L 49.949219 80.09375 Z M 49.179688 80.09375 " fill-opacity="1" fill-rule="nonzero"/><path fill="#ffffff" d="M 77.34375 80.09375 C 76.066406 80.09375 75.03125 81.125 75.03125 82.402344 C 75.03125 83.679688 76.066406 84.710938 77.34375 84.710938 L 90.984375 84.710938 C 92.261719 84.710938 93.292969 83.679688 93.292969 82.402344 C 93.292969 81.125 92.261719 80.09375 90.984375 80.09375 L 90.214844 80.09375 L 90.214844 47.089844 L 90.984375 47.089844 C 92.261719 47.089844 93.292969 46.054688 93.292969 44.777344 C 93.292969 43.5 92.261719 42.46875 90.984375 42.46875 L 77.34375 42.46875 C 76.066406 42.46875 75.03125 43.5 75.03125 44.777344 C 75.03125 46.054688 76.066406 47.089844 77.34375 47.089844 L 78.113281 47.089844 L 78.113281 80.09375 Z M 77.34375 80.09375 " fill-opacity="1" fill-rule="nonzero"/><path fill="#ffffff" d="M 12.984375 89.554688 L 12.984375 90.875 C 12.984375 92.089844 13.972656 93.074219 15.1875 93.074219 L 96.8125 93.074219 C 98.027344 93.074219 99.011719 92.089844 99.011719 90.875 L 99.011719 89.554688 C 99.011719 88.339844 98.027344 87.351562 96.8125 87.351562 L 15.1875 87.351562 C 13.972656 87.351562 12.984375 88.339844 12.984375 89.554688 Z M 12.984375 89.554688 " fill-opacity="1" fill-rule="nonzero"/><g clip-path="url(#7d775ce0fb)"><path fill="#ffffff" d="M 102.535156 95.714844 L 9.464844 95.714844 C 8.25 95.714844 7.261719 96.699219 7.261719 97.914062 L 7.261719 99.894531 C 7.261719 101.109375 8.25 102.09375 9.464844 102.09375 L 102.535156 102.09375 C 103.75 102.09375 104.734375 101.109375 104.734375 99.894531 L 104.734375 97.914062 C 104.734375 96.699219 103.75 95.714844 102.535156 95.714844 Z M 102.535156 95.714844 " fill-opacity="1" fill-rule="nonzero"/></g><g fill="#ffffff" fill-opacity="1"><g transform="translate(53.013212, 33.035022)"><g><path d="M 0.046875 3.234375 C -0.046875 2.890625 -0.09375 2.535156 -0.09375 2.171875 C -0.09375 1.328125 0.382812 0.90625 1.34375 0.90625 L 5.546875 0.90625 L 5.546875 0.1875 L 6.3125 0.1875 L 6.3125 0.953125 L 7.734375 1.265625 L 7.734375 1.96875 L 6.3125 1.96875 L 6.3125 3.125 L 5.546875 3.125 L 5.546875 1.96875 L 1.5625 1.96875 C 1.257812 1.96875 1.046875 2.015625 0.921875 2.109375 C 0.796875 2.210938 0.734375 2.382812 0.734375 2.625 C 0.734375 2.769531 0.765625 2.972656 0.828125 3.234375 Z M 0.046875 3.234375 "/></g></g></g></svg>