<svg xmlns="http://www.w3.org/2000/svg" xmlns:xlink="http://www.w3.org/1999/xlink" width="150" zoomAndPan="magnify" viewBox="0 0 112.5 112.499997" height="150" preserveAspectRatio="xMidYMid meet" version="1.0"><defs><g/><clipPath id="90207c9916"><path d="M 10.761719 10.757812 L 101.109375 10.757812 L 101.109375 89 L 10.761719 89 Z M 10.761719 10.757812 " clip-rule="nonzero"/></clipPath><clipPath id="283ca9d3cb"><path d="M 36 31 L 101.109375 31 L 101.109375 101.109375 L 36 101.109375 Z M 36 31 " clip-rule="nonzero"/></clipPath></defs><g clip-path="url(#90207c9916)"><path fill="#ffffff" d="M 93.980469 10.921875 L 18.394531 10.921875 C 17.90625 10.921875 17.417969 10.96875 16.9375 11.066406 C 16.457031 11.160156 15.988281 11.304688 15.535156 11.492188 C 15.082031 11.679688 14.652344 11.910156 14.246094 12.183594 C 13.835938 12.453125 13.460938 12.765625 13.113281 13.113281 C 12.765625 13.457031 12.457031 13.835938 12.183594 14.242188 C 11.910156 14.652344 11.679688 15.082031 11.492188 15.535156 C 11.304688 15.988281 11.164062 16.457031 11.070312 16.9375 C 10.972656 17.417969 10.925781 17.90625 10.925781 18.394531 L 10.925781 81.09375 C 10.925781 81.582031 10.976562 82.070312 11.070312 82.550781 C 11.167969 83.03125 11.308594 83.496094 11.496094 83.949219 C 11.683594 84.402344 11.914062 84.832031 12.1875 85.238281 C 12.460938 85.644531 12.769531 86.023438 13.117188 86.371094 C 13.464844 86.714844 13.839844 87.023438 14.25 87.296875 C 14.65625 87.570312 15.085938 87.800781 15.539062 87.988281 C 15.992188 88.175781 16.457031 88.316406 16.9375 88.410156 C 17.417969 88.507812 17.90625 88.554688 18.394531 88.554688 L 49.300781 88.554688 L 49.300781 78.394531 L 18.476562 78.394531 L 18.476562 21.382812 L 94.042969 21.382812 L 94.042969 36.714844 L 101.4375 36.714844 L 101.4375 18.394531 C 101.4375 17.90625 101.390625 17.417969 101.292969 16.9375 C 101.199219 16.457031 101.058594 15.992188 100.871094 15.539062 C 100.683594 15.085938 100.453125 14.65625 100.183594 14.246094 C 99.910156 13.839844 99.601562 13.460938 99.253906 13.117188 C 98.910156 12.769531 98.53125 12.457031 98.125 12.1875 C 97.71875 11.914062 97.289062 11.683594 96.835938 11.496094 C 96.382812 11.304688 95.917969 11.164062 95.433594 11.066406 C 94.953125 10.972656 94.46875 10.921875 93.980469 10.921875 Z M 93.980469 10.921875 " fill-opacity="1" fill-rule="nonzero"/></g><path fill="#ffffff" d="M 97.949219 54.847656 C 97.949219 55.621094 97.875 56.390625 97.722656 57.152344 C 97.574219 57.910156 97.347656 58.648438 97.050781 59.367188 C 96.753906 60.082031 96.390625 60.761719 95.960938 61.40625 C 95.53125 62.050781 95.039062 62.648438 94.492188 63.195312 C 93.945312 63.746094 93.347656 64.234375 92.703125 64.664062 C 92.058594 65.09375 91.378906 65.460938 90.660156 65.757812 C 89.945312 66.050781 89.207031 66.277344 88.445312 66.429688 C 87.6875 66.578125 86.917969 66.65625 86.144531 66.65625 C 85.367188 66.65625 84.601562 66.578125 83.839844 66.429688 C 83.078125 66.277344 82.339844 66.050781 81.625 65.757812 C 80.910156 65.460938 80.226562 65.09375 79.582031 64.664062 C 78.9375 64.234375 78.34375 63.746094 77.792969 63.195312 C 77.246094 62.648438 76.757812 62.050781 76.324219 61.40625 C 75.894531 60.761719 75.53125 60.082031 75.234375 59.367188 C 74.9375 58.648438 74.714844 57.910156 74.5625 57.152344 C 74.410156 56.390625 74.335938 55.621094 74.335938 54.847656 C 74.335938 54.070312 74.410156 53.304688 74.5625 52.542969 C 74.714844 51.785156 74.9375 51.046875 75.234375 50.328125 C 75.53125 49.613281 75.894531 48.933594 76.324219 48.289062 C 76.757812 47.644531 77.246094 47.046875 77.792969 46.5 C 78.34375 45.949219 78.9375 45.460938 79.582031 45.03125 C 80.226562 44.597656 80.910156 44.234375 81.625 43.9375 C 82.339844 43.640625 83.078125 43.417969 83.839844 43.265625 C 84.601562 43.117188 85.367188 43.039062 86.144531 43.039062 C 86.917969 43.039062 87.6875 43.117188 88.445312 43.265625 C 89.207031 43.417969 89.945312 43.640625 90.660156 43.9375 C 91.378906 44.234375 92.058594 44.597656 92.703125 45.03125 C 93.347656 45.460938 93.945312 45.949219 94.492188 46.5 C 95.039062 47.046875 95.53125 47.644531 95.960938 48.289062 C 96.390625 48.933594 96.753906 49.613281 97.050781 50.328125 C 97.347656 51.046875 97.574219 51.785156 97.722656 52.542969 C 97.875 53.304688 97.949219 54.070312 97.949219 54.847656 Z M 97.949219 54.847656 " fill-opacity="1" fill-rule="nonzero"/><g clip-path="url(#283ca9d3cb)"><path fill="#ffffff" d="M 86.144531 70.917969 C 85.820312 70.917969 85.523438 70.992188 85.203125 71.011719 C 84.96875 70.972656 84.730469 70.949219 84.488281 70.941406 L 64.253906 70.941406 L 58.199219 58.527344 C 57.929688 57.984375 57.582031 57.5 57.160156 57.066406 C 56.734375 56.636719 56.253906 56.28125 55.71875 56.003906 C 55.179688 55.726562 54.613281 55.539062 54.015625 55.441406 C 53.417969 55.34375 52.820312 55.34375 52.222656 55.4375 L 40.328125 32.90625 C 40.210938 32.683594 40.058594 32.492188 39.863281 32.332031 C 39.671875 32.171875 39.453125 32.054688 39.214844 31.980469 C 38.976562 31.90625 38.730469 31.878906 38.480469 31.902344 C 38.230469 31.925781 37.996094 31.996094 37.773438 32.113281 C 37.550781 32.230469 37.359375 32.386719 37.199219 32.578125 C 37.039062 32.769531 36.921875 32.988281 36.847656 33.226562 C 36.773438 33.46875 36.746094 33.710938 36.769531 33.960938 C 36.792969 34.210938 36.863281 34.449219 36.980469 34.667969 L 48.871094 57.238281 C 48.488281 57.660156 48.179688 58.125 47.9375 58.640625 C 47.699219 59.152344 47.539062 59.691406 47.460938 60.25 C 47.378906 60.8125 47.382812 61.371094 47.472656 61.933594 C 47.558594 62.492188 47.726562 63.027344 47.976562 63.535156 L 55.605469 79.132812 C 55.839844 79.609375 56.132812 80.046875 56.488281 80.441406 C 56.84375 80.835938 57.25 81.171875 57.699219 81.457031 C 58.152344 81.738281 58.632812 81.949219 59.144531 82.097656 C 59.65625 82.242188 60.175781 82.316406 60.707031 82.316406 L 71.40625 82.316406 C 71.042969 83.597656 70.851562 84.90625 70.835938 86.242188 L 70.835938 101.089844 L 101.449219 101.089844 L 101.449219 86.226562 C 101.449219 85.222656 101.351562 84.226562 101.15625 83.238281 C 100.960938 82.253906 100.667969 81.296875 100.285156 80.367188 C 99.898438 79.441406 99.429688 78.558594 98.871094 77.722656 C 98.3125 76.886719 97.675781 76.113281 96.96875 75.402344 C 96.257812 74.691406 95.484375 74.054688 94.648438 73.496094 C 93.8125 72.9375 92.929688 72.46875 92 72.082031 C 91.074219 71.699219 90.117188 71.40625 89.128906 71.210938 C 88.144531 71.015625 87.148438 70.917969 86.144531 70.917969 Z M 86.144531 70.917969 " fill-opacity="1" fill-rule="nonzero"/></g><g fill="#ffffff" fill-opacity="1"><g transform="translate(89.001238, 59.394821)"><g><path d="M 1.015625 0.015625 C 0.898438 0.046875 0.789062 0.0546875 0.6875 0.046875 C 0.414062 0.046875 0.285156 -0.101562 0.296875 -0.40625 L 0.328125 -1.71875 L 0.109375 -1.734375 L 0.125 -1.984375 L 0.359375 -1.96875 L 0.46875 -2.40625 L 0.6875 -2.40625 L 0.671875 -1.96875 L 1.046875 -1.953125 L 1.03125 -1.703125 L 0.65625 -1.71875 L 0.625 -0.46875 C 0.625 -0.375 0.632812 -0.304688 0.65625 -0.265625 C 0.6875 -0.234375 0.742188 -0.210938 0.828125 -0.203125 C 0.867188 -0.203125 0.929688 -0.210938 1.015625 -0.234375 Z M 1.015625 0.015625 "/></g></g></g></svg>